<?xml version="1.0" encoding="UTF-8" standalone="no"?>
<!-- Created with Inkscape (http://www.inkscape.org/) -->

<svg
   width="210mm"
   height="297mm"
   viewBox="0 0 210 297"
   version="1.1"
   id="svg5"
   inkscape:version="1.2.1 (9c6d41e410, 2022-07-14)"
   sodipodi:docname="smederijmes.svg"
   xmlns:inkscape="http://www.inkscape.org/namespaces/inkscape"
   xmlns:sodipodi="http://sodipodi.sourceforge.net/DTD/sodipodi-0.dtd"
   xmlns="http://www.w3.org/2000/svg"
   xmlns:svg="http://www.w3.org/2000/svg">
  <sodipodi:namedview
     id="namedview7"
     pagecolor="#ffffff"
     bordercolor="#000000"
     borderopacity="0.25"
     inkscape:showpageshadow="2"
     inkscape:pageopacity="0.0"
     inkscape:pagecheckerboard="0"
     inkscape:deskcolor="#d1d1d1"
     inkscape:document-units="mm"
     showgrid="false"
     inkscape:zoom="0.70710678"
     inkscape:cx="-253.14423"
     inkscape:cy="634.98189"
     inkscape:window-width="3840"
     inkscape:window-height="2054"
     inkscape:window-x="-11"
     inkscape:window-y="-11"
     inkscape:window-maximized="1"
     inkscape:current-layer="layer1" />
  <defs
     id="defs2">
    <inkscape:path-effect
       effect="envelope"
       id="path-effect7852"
       is_visible="true"
       lpeversion="1"
       yy="true"
       xx="true"
       bendpath1="M 93.043416,83.451237 H 112.59726"
       bendpath2="M 112.59726,83.451237 V 96.391016"
       bendpath3="M 93.043416,96.391016 H 112.59726"
       bendpath4="M 93.043416,83.451237 V 96.391016" />
  </defs>
  <g
     inkscape:label="Laag 1"
     inkscape:groupmode="layer"
     id="layer1">
    <g
       id="g13203"
       transform="translate(0.52916667)">
      <path
         id="path113"
         style="fill:#000000;stroke-width:0.264583"
         d="m 121.52953,39.818758 -46.992994,0.06615 c 8.895283,9.304263 26.829914,8.281665 26.829914,8.281665 V 43.56582 l 20.16308,-0.06615 z m -18.70684,5.062223 -0.0512,4.827096 c -8.52538,0.334112 -12.975085,-1.039102 -12.975085,-1.039102 2.107227,2.429642 4.303603,10.165736 -5.777284,12.513337 v 3.036507 h 10.490832 c 1.36435,-1.689708 4.127642,-2.755555 7.148917,-2.757454 3.02388,1.91e-4 5.79062,1.066291 7.15615,2.757454 h 10.30015 v -3.01842 c -11.32079,-2.571317 -8.72703,-13.735803 -3.01635,-16.305465 0.048,0.01286 -13.27617,-0.01395 -13.27617,-0.01395 z"
         sodipodi:nodetypes="ccccccccccccccccccc" />
    </g>
    <text
       xml:space="preserve"
       style="font-style:normal;font-variant:normal;font-weight:normal;font-stretch:normal;font-size:11.2889px;font-family:'Agency FB';-inkscape-font-specification:'Agency FB';fill:none;stroke:#000000;stroke-width:0;stroke-dasharray:none;stroke-opacity:1"
       x="84.589287"
       y="78.3657"
       id="text2032-2-1"><tspan
         sodipodi:role="line"
         id="tspan2030-7-4"
         style="font-style:normal;font-variant:normal;font-weight:normal;font-stretch:normal;font-size:11.2889px;font-family:'Agency FB';-inkscape-font-specification:'Agency FB';fill:#000000;fill-opacity:1;stroke-width:0;stroke-dasharray:none"
         x="84.589287"
         y="78.3657">SMEDERIJ</tspan></text>
    <path
       style="fill:none;fill-opacity:1;stroke:#000000;stroke-width:0.490327;stroke-dasharray:none;stroke-opacity:1"
       d="m 80.179866,55.596526 43.481564,0.08263 0.10789,45.151454 -21.4049,5.63535 -22.114697,-5.3181 z"
       id="path7067"
       sodipodi:nodetypes="cccccc" />
    <path
       style="fill:none;fill-opacity:1;stroke:#000000;stroke-width:0.835;stroke-dasharray:none;stroke-opacity:1"
       d="m 78.08063,53.36365 47.66958,0.08966 0.11829,48.98628 -23.46656,6.11398 -24.244721,-5.76978 z"
       id="path7067-0"
       sodipodi:nodetypes="cccccc" />
    <g
       id="g13199"
       transform="translate(0.0729315)">
      <g
         aria-label="MES"
         id="text2032-2"
         style="font-size:16.9333px;font-family:'Agency FB';-inkscape-font-specification:'Agency FB';fill:none;stroke:#000000;stroke-width:0"
         transform="matrix(1.2300273,0,0,1.2495822,-23.191069,-18.162319)">
        <path
           id="path7835"
           style="fill:#000000"
           d="m 91.922261,82.046811 v 12.460222 l 1.083138,0.28112 v -7.995378 c 0,-0.110244 -0.03858,-0.449243 -0.115755,-1.016993 l 2.11615,7.995378 h 0.23151 l 2.116667,-7.995378 c -0.07717,0.562238 -0.115755,0.901237 -0.115755,1.016993 v 8.789127 l 1.083138,0.347266 V 82.046811 h -1.066602 l -2.10013,8.417057 c -0.02205,0.165365 -0.03307,0.289389 -0.03307,0.372071 -0.01102,-0.203947 -0.02205,-0.327971 -0.03307,-0.372071 l -2.099613,-8.417057 z m 8.466149,0 v 14.490537 l 1.54615,0.35093 2.70372,-0.694527 v -1.016993 l -2.72438,0.620117 -0.37621,-0.09095 v -6.779947 h 2.77813 v -1.033529 h -2.77813 v -4.828646 h 3.05098 v -1.016992 z m 6.9205,0 c -0.2701,0 -0.49334,0.08544 -0.66972,0.256315 -0.17088,0.170877 -0.25632,0.391364 -0.25632,0.661458 v 2.621029 c 0,0.358288 0.12403,0.686264 0.37207,0.983919 l 3.57188,4.316016 v 2.838495 l -2.79466,0.92375 v -3.861464 h -1.14929 v 3.960683 c 0,0.270095 0.0854,0.490582 0.25632,0.661459 0.17638,0.170876 0.40987,0.329999 0.66972,0.256315 l 3.25769,-0.92375 c 0.25985,-0.07368 0.48782,-0.08544 0.65319,-0.256315 0.17088,-0.170877 0.25631,-0.391364 0.25631,-0.661459 v -2.747545 c 0,-0.358289 -0.11851,-0.680752 -0.35553,-0.967383 l -3.58841,-4.316015 v -2.728516 h 2.79466 v 2.910417 h 1.14928 v -3.009636 c 0,-0.270094 -0.0854,-0.490581 -0.25631,-0.661458 -0.16537,-0.170876 -0.3831,-0.256315 -0.65319,-0.256315 z"
           sodipodi:nodetypes="cccsccccsccccccccccccccccccccccccscssccccccscsscssccccccscss" />
      </g>
      <circle
         style="fill:#000000;fill-opacity:1;stroke:#000000;stroke-width:0.313551;stroke-dasharray:none;stroke-opacity:1"
         id="path11595"
         cx="119.13673"
         cy="92.047234"
         r="0.61879355" />
      <circle
         style="fill:#000000;fill-opacity:1;stroke:#000000;stroke-width:0.313551;stroke-dasharray:none;stroke-opacity:1"
         id="path11595-1"
         cx="84.666672"
         cy="92.047234"
         r="0.61879355" />
    </g>
    <ellipse
       style="fill:#000000;fill-opacity:1;stroke:#000000;stroke-width:0;stroke-dasharray:none;stroke-opacity:1"
       id="path12367"
       cx="101.97463"
       cy="67.211601"
       rx="17.501783"
       ry="0.23385994" />
    <ellipse
       style="fill:#000000;fill-opacity:1;stroke:#000000;stroke-width:0;stroke-dasharray:none;stroke-opacity:1"
       id="path12367-6"
       cx="101.97463"
       cy="81.127869"
       rx="17.501783"
       ry="0.23385994" />
  </g>
</svg>
